<?xml version="1.0" encoding="utf-8"?>
<svg viewBox="0 34.806 220.027 401.997" width="254.191px" height="464.415px" xmlns="http://www.w3.org/2000/svg">
  <g>
    <path d="M 148.767 320.924 L 148.767 403.548 C 148.767 406.854 145.869 408.681 140.127 409.089 L 140.127 412.645 L 202.988 412.645 L 202.988 409.089 C 197.347 408.682 194.5 406.854 194.5 403.548 L 194.5 320.924 C 194.5 303.747 190.841 289.824 183.576 279.1 C 176.258 268.379 166.401 260.706 153.899 256.032 C 141.399 251.354 126.916 249.018 110.402 249.018 C 93.836 249.018 79.302 251.354 66.802 256.032 C 54.302 260.706 44.442 268.379 37.125 279.1 C 29.859 289.824 26.2 303.747 26.2 320.924 L 26.2 360.138 L 71.936 360.138 L 71.936 320.924 C 71.936 309.54 75.187 301.155 81.741 295.769 C 88.298 290.431 97.851 287.737 110.351 287.737 C 135.96 287.737 148.767 298.819 148.767 320.924 Z" style="fill: rgb(255, 255, 255);"/>
    <path fill-rule="evenodd" clip-rule="evenodd" d="M 71.391 123.168 L 106.883 129.551 C 106.884 129.552 78.627 154.595 71.391 123.168 Z" style="fill: rgb(255, 255, 255);"/>
    <path fill-rule="evenodd" clip-rule="evenodd" d="M 163.228 123.168 L 127.739 129.551 C 127.739 129.552 155.992 154.595 163.228 123.168 Z" style="fill: rgb(255, 255, 255);"/>
    <path d="M 87.433 101.695 L 140.007 101.695 L 170.056 101.695 L 179.153 101.695 L 179.153 55.959 L 170.056 55.959 L 156.174 55.959 L 87.433 55.959 C 70.258 55.959 56.332 59.615 45.612 66.883 C 34.888 74.2 27.215 84.06 22.541 96.558 C 17.864 109.06 15.528 123.543 15.528 140.058 C 15.528 156.624 17.864 171.158 22.541 183.658 C 27.215 196.158 34.889 206.018 45.612 213.335 C 56.333 220.601 70.258 224.26 87.433 224.26 L 163.902 224.26 L 170.057 224.26 L 179.154 224.26 L 179.154 178.525 L 170.057 178.525 L 137.197 178.525 L 87.433 178.525 C 76.049 178.525 67.664 175.274 62.278 168.72 C 56.941 162.163 54.249 152.61 54.249 140.11 C 54.249 114.498 65.329 101.695 87.433 101.695 Z" style="fill: rgb(255, 255, 255);"/>
  </g>
</svg>